<svg width="50" height="50" viewBox="0 0 50 50" fill="none" xmlns="http://www.w3.org/2000/svg">
<circle cx="25" cy="25" r="25" fill="#61DC00"/>
<circle cx="25" cy="21" r="4" stroke="white" stroke-width="2" stroke-linecap="round"/>
<path fill-rule="evenodd" clip-rule="evenodd" d="M26.3267 28.0759C25.8886 28.0255 25.4452 28 25 28C23.0805 28 21.1938 28.4738 19.6311 29.3732C18.069 30.2721 16.8812 31.5702 16.3309 33.1106C16.1451 33.6307 16.4161 34.203 16.9362 34.3888C17.4563 34.5746 18.0285 34.3036 18.2143 33.7835C18.5756 32.7723 19.3965 31.8157 20.6287 31.1066C21.6427 30.523 22.8638 30.1503 24.158 30.0368C24.4889 29.0601 25.3091 28.3092 26.3267 28.0759Z" fill="white"/>
<path d="M31 27L31 35" stroke="white" stroke-width="2.5" stroke-linecap="round"/>
<path d="M35 31L27 31" stroke="white" stroke-width="2.5" stroke-linecap="round"/>
<rect x="17" y="33" width="10" height="2" rx="1" fill="white"/>
</svg>
