<svg width="23" height="25" viewBox="0 0 23 25" fill="none" xmlns="http://www.w3.org/2000/svg">
<path d="M5.07324 7.34116C5.41032 4.04491 8.18656 1.53809 11.5 1.53809V1.53809C14.8134 1.53809 17.5897 4.0449 17.9268 7.34116L18.2849 10.8437C18.3337 11.3206 18.3581 11.5591 18.3962 11.7936C18.518 12.542 18.7456 13.2694 19.0721 13.9537C19.1744 14.1681 19.2902 14.378 19.522 14.7976L20.3617 16.3184C21.0918 17.6405 21.4569 18.3016 21.1667 18.7934C20.8765 19.2852 20.1213 19.2852 18.6109 19.2852H4.38908C2.87871 19.2852 2.12353 19.2852 1.83332 18.7934C1.54311 18.3016 1.90817 17.6405 2.63828 16.3184L3.47802 14.7976C3.70976 14.378 3.82563 14.1681 3.92793 13.9537C4.25445 13.2694 4.482 12.542 4.60377 11.7936C4.64192 11.5591 4.6663 11.3206 4.71507 10.8437L5.07324 7.34116Z" stroke="black" stroke-opacity="0.8" stroke-width="2"/>
<path d="M8.11926 19.5922C8.31867 20.7021 8.75808 21.6828 9.36933 22.3823C9.98059 23.0818 10.7295 23.4609 11.5 23.4609C12.2705 23.4609 13.0194 23.0818 13.6307 22.3823C14.2419 21.6828 14.6813 20.7021 14.8807 19.5922" stroke="black" stroke-opacity="0.8" stroke-width="2" stroke-linecap="round"/>
</svg>
