<svg width="24" height="27" viewBox="0 0 24 27" fill="none" xmlns="http://www.w3.org/2000/svg">
<path fill-rule="evenodd" clip-rule="evenodd" d="M14.5262 19.3261C15.2222 18.8537 15.7787 18.1914 16.1216 17.4138L16.1242 17.4079L16.1242 17.4079C16.2024 17.2305 16.2646 17.0897 16.3143 16.9833C16.3607 16.884 16.4117 16.7804 16.4691 16.699C16.5753 16.5483 16.6969 16.4076 16.8643 16.2977C17.0317 16.1878 17.2091 16.1322 17.3896 16.0946C17.5377 16.0638 17.7255 16.0627 17.9515 16.0615L18.0051 16.0611C19.3858 16.0522 20.4978 14.9256 20.4888 13.545C20.4798 12.1643 19.3533 11.0523 17.9726 11.0612L11.9727 11.1002L5.97288 11.1391C4.59219 11.1481 3.48019 12.2746 3.48916 13.6553C3.49812 15.036 4.62465 16.148 6.00533 16.139L6.0589 16.1387C6.2849 16.137 6.4727 16.1356 6.62116 16.1645C6.80216 16.1997 6.9803 16.253 7.1491 16.3607C7.31789 16.4684 7.44127 16.6076 7.54945 16.7569C7.60788 16.8375 7.66023 16.9405 7.70795 17.0392C7.75904 17.1449 7.82296 17.2849 7.90343 17.4611L7.90622 17.4672C8.25922 18.2402 8.82426 18.8952 9.52631 19.3585L9.53382 20.5165C8.41698 19.9546 7.51745 19.0233 6.99657 17.8826C6.91275 17.699 6.85337 17.569 6.80764 17.4744C6.785 17.4276 6.76801 17.3943 6.75502 17.3705C6.74534 17.3527 6.74018 17.3446 6.73904 17.3428L6.7388 17.3424C6.66917 17.2465 6.63253 17.2173 6.61117 17.2037C6.58973 17.19 6.54762 17.169 6.43021 17.1461C6.39464 17.1392 6.32085 17.137 6.01182 17.139C4.07887 17.1516 2.50172 15.5948 2.48918 13.6618C2.47663 11.7288 4.03343 10.1517 5.96638 10.1392L11.9663 10.1002L17.9661 10.0613C19.8991 10.0487 21.4762 11.6055 21.4888 13.5385C21.5013 15.4714 19.9445 17.0486 18.0116 17.0611C17.7025 17.0631 17.6288 17.0663 17.5933 17.0737C17.4762 17.098 17.4344 17.1196 17.4131 17.1336C17.3919 17.1475 17.3557 17.1771 17.2873 17.2739C17.2873 17.274 17.2872 17.2741 17.2871 17.2743C17.2859 17.2762 17.2809 17.2844 17.2714 17.3022C17.2588 17.3262 17.2422 17.3597 17.2202 17.4068C17.1757 17.502 17.118 17.6328 17.0366 17.8174C16.5305 18.9647 15.6432 19.9077 14.5337 20.484L14.5262 19.3261Z" fill="#444343"/>
<path d="M12.0234 26.0094L12.3778 26.3621L12.0251 26.7165L11.6707 26.3638L12.0234 26.0094ZM11.4999 16.0106C11.4993 15.7344 11.7226 15.51 11.9988 15.5094C12.2749 15.5087 12.4993 15.7321 12.4999 16.0082L11.4999 16.0106ZM16.3684 22.3527L12.3778 26.3621L11.6691 25.6566L15.6597 21.6473L16.3684 22.3527ZM11.6707 26.3638L7.66134 22.3732L8.36678 21.6644L12.3762 25.655L11.6707 26.3638ZM11.5234 26.0105L11.4999 16.0106L12.4999 16.0082L12.5234 26.0082L11.5234 26.0105Z" fill="#444343"/>
</svg>
