<svg width="49" height="47" viewBox="0 0 49 47" fill="none" xmlns="http://www.w3.org/2000/svg">
<ellipse cx="24.5" cy="23.5" rx="24.5" ry="23.5" fill="black"/>
<path d="M16.3477 10.0469H18.7403V16.876C18.7403 17.5094 18.5922 18.0745 18.296 18.5713C18.0043 19.068 17.5942 19.4531 17.0655 19.7266C16.5414 20 15.9558 20.1367 15.3087 20.1367C14.224 20.1367 13.3809 19.8633 12.7794 19.3164C12.1778 18.7695 11.877 17.9948 11.877 16.9922H14.2833C14.2833 17.4479 14.3608 17.7783 14.5157 17.9834C14.6752 18.1885 14.9395 18.291 15.3087 18.291C15.6414 18.291 15.8966 18.168 16.0743 17.9219C16.2566 17.6712 16.3477 17.3226 16.3477 16.876V10.0469ZM28.2666 15.2285C28.2666 16.1992 28.0866 17.0583 27.7266 17.8057C27.3665 18.5531 26.8538 19.1296 26.1885 19.5352C25.5277 19.9362 24.7734 20.1367 23.9258 20.1367C23.0781 20.1367 22.3262 19.943 21.6699 19.5557C21.0137 19.1637 20.501 18.6055 20.1318 17.8809C19.7673 17.1562 19.5758 16.3245 19.5576 15.3857V14.8252C19.5576 13.8499 19.7354 12.9909 20.0908 12.248C20.4508 11.5007 20.9635 10.9242 21.6289 10.5186C22.2988 10.113 23.0599 9.91016 23.9121 9.91016C24.7552 9.91016 25.5072 10.1107 26.168 10.5117C26.8288 10.9128 27.3415 11.4847 27.7061 12.2275C28.0752 12.9658 28.262 13.8135 28.2666 14.7705V15.2285ZM25.8262 14.8115C25.8262 13.8226 25.6598 13.0729 25.3271 12.5625C24.999 12.0475 24.5273 11.79 23.9121 11.79C22.709 11.79 22.0732 12.6924 22.0049 14.4971L21.998 15.2285C21.998 16.2038 22.1598 16.9535 22.4834 17.4775C22.807 18.0016 23.2878 18.2637 23.9258 18.2637C24.5319 18.2637 24.999 18.0062 25.3271 17.4912C25.6553 16.9762 25.8216 16.2357 25.8262 15.2695V14.8115ZM29.0839 20V10.0469H32.6591C33.9397 10.0469 34.9127 10.2816 35.578 10.751C36.248 11.2204 36.5829 11.9017 36.5829 12.7949C36.5829 13.3099 36.4644 13.7497 36.2275 14.1143C35.9905 14.4788 35.6418 14.7477 35.1816 14.9209C35.7011 15.0576 36.0999 15.3128 36.3779 15.6865C36.6558 16.0602 36.7948 16.516 36.7948 17.0537C36.7948 18.029 36.4849 18.7627 35.8652 19.2549C35.2499 19.7425 34.3362 19.9909 33.1239 20H29.0839ZM31.4833 15.7686V18.1543H33.0556C33.4885 18.1543 33.8212 18.0563 34.0536 17.8604C34.2861 17.6598 34.4023 17.3796 34.4023 17.0195C34.4023 16.1901 33.9898 15.7731 33.165 15.7686H31.4833ZM31.4833 14.1963H32.7343C33.2584 14.1917 33.6321 14.096 33.8554 13.9092C34.0787 13.7223 34.1904 13.4466 34.1904 13.082C34.1904 12.6628 34.0696 12.362 33.828 12.1797C33.5865 11.9928 33.1969 11.8994 32.6591 11.8994H31.4833V14.1963ZM14.0129 27.8994H11.0255V36H8.62613V27.8994H5.69352V26.0469H14.0129V27.8994ZM22.8487 31.2285C22.8487 32.1992 22.6687 33.0583 22.3087 33.8057C21.9486 34.5531 21.436 35.1296 20.7706 35.5352C20.1098 35.9362 19.3555 36.1367 18.5079 36.1367C17.6602 36.1367 16.9083 35.943 16.252 35.5557C15.5958 35.1637 15.0831 34.6055 14.7139 33.8809C14.3494 33.1562 14.158 32.3245 14.1397 31.3857V30.8252C14.1397 29.8499 14.3175 28.9909 14.6729 28.248C15.033 27.5007 15.5457 26.9242 16.211 26.5186C16.8809 26.113 17.642 25.9102 18.4942 25.9102C19.3373 25.9102 20.0893 26.1107 20.7501 26.5117C21.4109 26.9128 21.9236 27.4847 22.2882 28.2275C22.6573 28.9658 22.8442 29.8135 22.8487 30.7705V31.2285ZM20.4083 30.8115C20.4083 29.8226 20.2419 29.0729 19.9093 28.5625C19.5811 28.0475 19.1095 27.79 18.4942 27.79C17.2911 27.79 16.6554 28.6924 16.587 30.4971L16.5802 31.2285C16.5802 32.2038 16.7419 32.9535 17.0655 33.4775C17.3891 34.0016 17.8699 34.2637 18.5079 34.2637C19.114 34.2637 19.5811 34.0062 19.9093 33.4912C20.2374 32.9762 20.4037 32.2357 20.4083 31.2695V30.8115ZM32.0947 31.2285C32.0947 32.1992 31.9147 33.0583 31.5547 33.8057C31.1947 34.5531 30.682 35.1296 30.0166 35.5352C29.3558 35.9362 28.6016 36.1367 27.7539 36.1367C26.9062 36.1367 26.1543 35.943 25.498 35.5557C24.8418 35.1637 24.3291 34.6055 23.96 33.8809C23.5954 33.1562 23.404 32.3245 23.3857 31.3857V30.8252C23.3857 29.8499 23.5635 28.9909 23.9189 28.248C24.279 27.5007 24.7917 26.9242 25.457 26.5186C26.127 26.113 26.888 25.9102 27.7402 25.9102C28.5833 25.9102 29.3353 26.1107 29.9961 26.5117C30.6569 26.9128 31.1696 27.4847 31.5342 28.2275C31.9033 28.9658 32.0902 29.8135 32.0947 30.7705V31.2285ZM29.6543 30.8115C29.6543 29.8226 29.488 29.0729 29.1553 28.5625C28.8271 28.0475 28.3555 27.79 27.7402 27.79C26.5371 27.79 25.9014 28.6924 25.833 30.4971L25.8262 31.2285C25.8262 32.2038 25.988 32.9535 26.3115 33.4775C26.6351 34.0016 27.1159 34.2637 27.7539 34.2637C28.36 34.2637 28.8271 34.0062 29.1553 33.4912C29.4834 32.9762 29.6497 32.2357 29.6543 31.2695V30.8115ZM35.3114 34.1543H39.4882V36H32.912V26.0469H35.3114V34.1543ZM42.6366 36H40.244V26.0469H42.6366V36Z" fill="white"/>
<ellipse cx="24" cy="15" rx="3" ry="4" fill="#61DC00"/>
<path d="M45.4196 45.5402L36.3149 42.9798L42.2485 36.9872L45.4196 45.5402Z" fill="black"/>
</svg>
