<svg width="45" height="45" viewBox="0 0 45 45" fill="none" xmlns="http://www.w3.org/2000/svg">
<g clip-path="url(#clip0_2_764)">
<path d="M36.0518 30.8412H35.2134V11.5655C35.2134 9.43632 33.7119 7.71032 31.8597 7.71032H21.7988V4.81896C21.7988 4.28668 21.4234 3.85518 20.9604 3.85518H19.2835C18.8205 3.85518 18.4451 4.28668 18.4451 4.81896V7.71032H8.38413C6.53195 7.71032 5.03047 9.43632 5.03047 11.5655V30.8412H4.19205C3.72901 30.8412 3.35364 31.2727 3.35364 31.8049V33.7325C3.35364 34.2648 3.72901 34.6963 4.19205 34.6963H12.2576L8.61888 40.6718C8.46928 40.9143 8.3874 41.2034 8.38413 41.5006V41.9247C8.38413 42.1908 8.57181 42.4066 8.80333 42.4066H10.782C11.3307 42.4055 11.8442 42.096 12.157 41.5777L16.3491 34.6963H23.8948L28.0869 41.5777C28.3996 42.096 28.9132 42.4055 29.4619 42.4066H31.4405C31.6721 42.4066 31.8597 42.1908 31.8597 41.9247V41.5006C31.8565 41.2034 31.7746 40.9143 31.625 40.6718L27.9863 34.6963H36.0518C36.5149 34.6963 36.8902 34.2648 36.8902 33.7325V31.8049C36.8902 31.2727 36.5149 30.8412 36.0518 30.8412ZM31.8597 29.6075C31.8597 30.2888 31.3793 30.8412 30.7866 30.8412C30.4621 30.8334 30.1564 30.6647 29.9482 30.3785L23.7942 21.5695C23.6351 21.3415 23.3945 21.2089 23.1402 21.2089C22.8859 21.2089 22.6454 21.3415 22.4863 21.5695L18.6463 27.1209C18.4875 27.3562 18.243 27.4938 17.984 27.4938C17.7249 27.4938 17.4804 27.3562 17.3216 27.1209L15.6448 24.4995C15.483 24.2564 15.2319 24.1139 14.9657 24.1139C14.6994 24.1139 14.4484 24.2564 14.2866 24.4995L10.5472 30.2822C10.3097 30.6462 9.93699 30.8604 9.54114 30.8604C9.23935 30.8877 8.94159 30.7671 8.72124 30.5285C8.5009 30.2899 8.37847 29.9554 8.38413 29.6075L8.38394 11.5655H31.8597V29.6075ZM15.9299 21.2033C17.319 21.2033 18.4451 19.9088 18.4451 18.312C18.4451 16.7151 17.319 15.4206 15.9299 15.4206C14.5407 15.4206 13.4146 16.7151 13.4146 18.312C13.4146 19.9088 14.5407 21.2033 15.9299 21.2033Z" fill="#333333" fill-opacity="0.2"/>
<rect x="8.41461" y="11.3551" width="23.0488" height="18.9252" fill="white"/>
<path d="M14.8897 22.0588L15 26.106" stroke="black" stroke-opacity="0.2" stroke-width="3" stroke-linecap="square" stroke-linejoin="round"/>
<path d="M20.0826 18.2357L20.2231 26.1055" stroke="black" stroke-opacity="0.2" stroke-width="3" stroke-linecap="square" stroke-linejoin="round"/>
<path d="M25.147 20L25.2439 25.9349" stroke="black" stroke-opacity="0.2" stroke-width="3" stroke-linecap="square" stroke-linejoin="round"/>
<rect x="8.59753" y="11.8458" width="23.0488" height="18.785" rx="2" stroke="black" stroke-opacity="0.2" stroke-width="2"/>
</g>
<defs>
<clipPath id="clip0_2_764">
<rect width="45" height="45" fill="white"/>
</clipPath>
</defs>
</svg>
