<svg width="13" height="16" viewBox="0 0 13 16" fill="none" xmlns="http://www.w3.org/2000/svg">
<path d="M1 5.49134C1 3.3741 1 2.31548 1.60409 1.65774C2.20818 1 3.18046 1 5.125 1H7.875C9.81954 1 10.7918 1 11.3959 1.65774C12 2.31548 12 3.3741 12 5.49134V10.6022C12 12.6108 12 13.6151 11.4195 13.9223C10.8391 14.2294 10.1138 13.609 8.66324 12.368L8.19901 11.9709C7.38338 11.2731 6.97556 10.9242 6.5 10.9242C6.02444 10.9242 5.61662 11.2731 4.80099 11.9709L4.33676 12.368C2.88619 13.609 2.1609 14.2294 1.58045 13.9223C1 13.6151 1 12.6108 1 10.6022V5.49134Z" fill="#32A0EF" stroke="white" stroke-width="2"/>
</svg>
