<svg width="21" height="25" viewBox="0 0 21 25" fill="none" xmlns="http://www.w3.org/2000/svg">
<path d="M19.5097 10.4372C19.5097 17.4372 10.5097 23.4372 10.5097 23.4372C10.5097 23.4372 1.5097 17.4372 1.5097 10.4372C1.5097 8.05025 2.45792 5.76106 4.14574 4.07323C5.83357 2.38541 8.12276 1.43719 10.5097 1.43719C12.8967 1.43719 15.1858 2.38541 16.8737 4.07323C18.5615 5.76106 19.5097 8.05025 19.5097 10.4372Z" stroke="#747474" stroke-width="2" stroke-linecap="round" stroke-linejoin="round"/>
<path d="M10.5097 13.4372C12.1666 13.4372 13.5097 12.094 13.5097 10.4372C13.5097 8.78034 12.1666 7.43719 10.5097 7.43719C8.85285 7.43719 7.5097 8.78034 7.5097 10.4372C7.5097 12.094 8.85285 13.4372 10.5097 13.4372Z" stroke="#747474" stroke-width="2" stroke-linecap="round" stroke-linejoin="round"/>
</svg>
