<svg width="30" height="31" viewBox="0 0 30 31" fill="none" xmlns="http://www.w3.org/2000/svg">
<g filter="url(#filter0_d_0_1)">
<ellipse cx="14.9295" cy="14.0363" rx="10.9295" ry="10.9959" fill="white"/>
</g>
<path d="M14.9198 24.0375C20.4426 24.0375 24.9198 19.5604 24.9198 14.0375C24.9198 8.51466 20.4426 4.03751 14.9198 4.03751C9.39694 4.03751 4.91979 8.51466 4.91979 14.0375C4.91979 19.5604 9.39694 24.0375 14.9198 24.0375Z" stroke="#BC0F0F" stroke-width="2" stroke-linecap="round" stroke-linejoin="round"/>
<path d="M12.0096 11.0376C12.2447 10.3693 12.7088 9.80569 13.3196 9.44672C13.9304 9.08775 14.6485 8.95653 15.3468 9.0763C16.0451 9.19607 16.6784 9.55911 17.1347 10.1011C17.591 10.6431 17.8407 11.3291 17.8396 12.0376C17.8396 14.0376 14.8396 15.0376 14.8396 15.0376" stroke="#BC0F0F" stroke-width="2" stroke-linecap="round" stroke-linejoin="round"/>
<path d="M14.9198 19.0375H14.9298" stroke="#BC0F0F" stroke-width="2" stroke-linecap="round" stroke-linejoin="round"/>
<defs>
<filter id="filter0_d_0_1" x="0" y="0.0404053" width="29.859" height="29.9918" filterUnits="userSpaceOnUse" color-interpolation-filters="sRGB">
<feFlood flood-opacity="0" result="BackgroundImageFix"/>
<feColorMatrix in="SourceAlpha" type="matrix" values="0 0 0 0 0 0 0 0 0 0 0 0 0 0 0 0 0 0 127 0" result="hardAlpha"/>
<feOffset dy="1"/>
<feGaussianBlur stdDeviation="2"/>
<feComposite in2="hardAlpha" operator="out"/>
<feColorMatrix type="matrix" values="0 0 0 0 0 0 0 0 0 0 0 0 0 0 0 0 0 0 0.25 0"/>
<feBlend mode="normal" in2="BackgroundImageFix" result="effect1_dropShadow_0_1"/>
<feBlend mode="normal" in="SourceGraphic" in2="effect1_dropShadow_0_1" result="shape"/>
</filter>
</defs>
</svg>
